# xmcd
#
# Track frame offsets:
#	150
#	21875
#	44495
#	63550
#	79463
#	95602
#	112486
#	126520
#	144034
#	156944
#	175460
#
# Disc length: 2488 seconds
#
# Revision: 1
# Processed by: cddbd v1.5.2PL0 Copyright (c) Steve Scherf et al.
# Submitted via: audiograbber 1.83.01
#
DISCID=a509b60b
DTITLE=The Memphis Train Union - Out On The Road
DYEAR=2008
DGENRE=Country Rock
TTITLE0=Letter To Las Vegas
TTITLE1=Love Is Hard
TTITLE2=Beating The Blues
TTITLE3=Convenience Store
TTITLE4=Out On The Road
TTITLE5=Hearts Will Break
TTITLE6=Ballad Of Easy Flyer
TTITLE7=Under This Moonlight
TTITLE8=Drunk In New Orleans
TTITLE9=Barroom Angels
TTITLE10=You're The Apple Of My Eye
EXTD=
EXTT0=
EXTT1=
EXTT2=
EXTT3=
EXTT4=
EXTT5=
EXTT6=
EXTT7=
EXTT8=
EXTT9=
EXTT10=
PLAYORDER=
